<svg xmlns="http://www.w3.org/2000/svg" viewBox="18 32 216 216" width="512" height="512">
  <!-- Body (tighter fit) -->
  <path d="M128 228
    C 76 228, 34 208, 30 164
    C 26 130, 32 100, 50 80
    C 68 60, 98 52, 128 52
    C 158 52, 188 60, 206 80
    C 224 100, 230 130, 226 164
    C 222 208, 180 228, 128 228Z"
    fill="#5EB656"/>
  <path d="M128 228
    C 76 228, 34 208, 30 164
    C 26 130, 32 100, 50 80
    C 68 60, 98 52, 128 52
    C 158 52, 188 60, 206 80
    C 224 100, 230 130, 226 164
    C 222 208, 180 228, 128 228Z"
    fill="none" stroke="#3D8A37" stroke-width="6"/>
  <!-- Highlight -->
  <ellipse cx="82" cy="78" rx="24" ry="14" fill="#7CC875" opacity="0.45" transform="rotate(-20 82 78)"/>
  <!-- Left eye white -->
  <ellipse cx="82" cy="136" rx="26" ry="28" fill="white"/>
  <!-- Right eye white -->
  <ellipse cx="174" cy="136" rx="26" ry="28" fill="white"/>
  <!-- Left pupil -->
  <ellipse cx="86" cy="140" rx="15" ry="17" fill="#1a1a1a"/>
  <!-- Right pupil -->
  <ellipse cx="170" cy="140" rx="15" ry="17" fill="#1a1a1a"/>
  <!-- Left eye glint -->
  <circle cx="80" cy="132" r="5.5" fill="white"/>
  <!-- Right eye glint -->
  <circle cx="164" cy="132" r="5.5" fill="white"/>
  <!-- Smile -->
  <path d="M104 170 Q128 192 152 170" fill="none" stroke="#3D7A37" stroke-width="5.5" stroke-linecap="round"/>
</svg>
